<?xml version="1.0" standalone="no"?>
<!DOCTYPE svg PUBLIC "-//W3C//DTD SVG 20010904//EN"
 "http://www.w3.org/TR/2001/REC-SVG-20010904/DTD/svg10.dtd">
<svg version="1.0" xmlns="http://www.w3.org/2000/svg"
 width="1337.000000pt" height="968.000000pt" viewBox="0 0 1337.000000 968.000000"
 preserveAspectRatio="xMidYMid meet">

<g transform="translate(0.000000,968.000000) scale(0.100000,-0.100000)"
fill="#000000" stroke="none">
<path d="M5268 7984 c-168 -40 -310 -181 -347 -345 -6 -24 -10 -116 -10 -204
0 -156 1 -159 14 -108 33 123 123 238 232 296 108 58 86 57 1323 57 1237 0
1215 1 1323 -57 106 -57 200 -175 233 -293 11 -41 12 -32 13 110 0 85 -4 175
-10 199 -39 171 -194 319 -368 351 -34 6 -476 10 -1200 9 -941 -1 -1156 -3
-1203 -15z m1698 -145 c17 -19 17 -23 3 -47 -21 -38 -62 -41 -85 -8 -15 24
-15 28 0 51 20 31 56 33 82 4z m-227 -3 c9 -11 10 -20 1 -35 -10 -20 -18 -21
-255 -21 -237 0 -245 1 -255 21 -9 15 -8 24 1 35 9 11 55 14 254 14 199 0 245
-3 254 -14z"/>
<path d="M4860 6535 l0 -495 25 0 25 0 0 495 0 495 -25 0 -25 0 0 -495z"/>
<path d="M4860 5420 l0 -280 25 0 25 0 0 280 0 280 -25 0 -25 0 0 -280z"/>
<path d="M5170 3170 c0 -19 7 -20 215 -20 208 0 215 1 215 20 0 19 -7 20 -215
20 -208 0 -215 -1 -215 -20z"/>
<path d="M5740 3170 c0 -20 6 -20 325 -20 313 0 325 1 325 19 0 18 -13 19
-325 20 -320 1 -325 1 -325 -19z"/>
<path d="M6630 3169 c0 -18 10 -19 215 -19 207 0 215 1 215 20 0 19 -8 19
-215 19 -204 -1 -215 -2 -215 -20z"/>
<path d="M7310 3170 c0 -19 7 -20 215 -20 208 0 215 1 215 20 0 19 -7 20 -215
20 -208 0 -215 -1 -215 -20z"/>
<path d="M4911 1710 c-1 -91 4 -164 13 -195 47 -178 197 -315 376 -344 89 -15
2271 -15 2360 0 179 29 329 166 376 344 9 31 14 104 13 195 l0 145 -15 -54
c-41 -153 -148 -266 -305 -323 l-64 -23 -1185 0 -1185 0 -64 23 c-157 57 -264
170 -305 323 l-15 54 0 -145z"/>
</g>
</svg>
